HIERARCHY
ROOT Hips
{
	OFFSET 0.000000 0.000000 0.000000
	CHANNELS 6 Xposition Yposition Zposition Zrotation Yrotation Xrotation 
	JOINT LHipJoint
	{
		OFFSET 0.000000 0.000000 0.000000
		CHANNELS 3 Zrotation Yrotation Xrotation
		JOINT LeftUpLeg
		{
			OFFSET 1.363060 -1.794630 0.839290
			CHANNELS 3 Zrotation Yrotation Xrotation
			JOINT LeftLeg
			{
				OFFSET 2.448110 -6.726130 0.000000
				CHANNELS 3 Zrotation Yrotation Xrotation
				JOINT LeftFoot
				{
					OFFSET 2.562200 -7.039590 0.000000
					CHANNELS 3 Zrotation Yrotation Xrotation
					JOINT LeftToeBase
					{
						OFFSET 0.157640 -0.433110 2.322550
						CHANNELS 3 Zrotation Yrotation Xrotation
						End Site
						{
							OFFSET 0.000000 0.000000 0.000000
						}
					}
				}
			}
		}
	}
	JOINT RHipJoint
	{
		OFFSET 0.000000 0.000000 0.000000
		CHANNELS 3 Zrotation Yrotation Xrotation
		JOINT RightUpLeg
		{
			OFFSET -1.305520 -1.794630 0.839290
			CHANNELS 3 Zrotation Yrotation Xrotation
			JOINT RightLeg
			{
				OFFSET -2.542530 -6.985550 0.000000
				CHANNELS 3 Zrotation Yrotation Xrotation
				JOINT RightFoot
				{
					OFFSET -2.568260 -7.056230 0.000000
					CHANNELS 3 Zrotation Yrotation Xrotation
					JOINT RightToeBase
					{
						OFFSET -0.164730 -0.452590 2.363150
						CHANNELS 3 Zrotation Yrotation Xrotation
						End Site
						{
							OFFSET 0.000000 0.000000 0.000000
						}
					}
				}
			}
		}
	}
}
MOTION
Frames: 11
Frame Time: 0.008333
-11.187442 16.757118 -0.336997 -14.033619 84.268636 12.239546 -11.562812 2.550833 -2.416408 -4.689256 6.803235 -6.712441 -1.582055 0.986841 21.073304 0.152263 -1.282087 4.315129 -0.176700 0.000000 -78.831200 7.921915 0.187815 2.670874 8.144669 9.518935 -48.257847 2.666883 -0.563685 17.017072 -0.536390 -2.645318 2.788135 -1.317600 0.000000 -28.498000
-11.003556 16.748619 -0.311862 -18.150883 84.743202 8.173209 -11.642481 2.512334 -2.329568 -4.066364 6.564371 -7.413352 -1.376490 1.118787 23.050718 0.191880 -1.339436 5.560059 -0.241900 0.000001 -80.196301 7.878390 0.072175 2.609473 8.537014 9.542297 -48.643403 2.596813 -0.818552 19.275130 -0.637106 -2.849507 1.788735 -1.277300 0.000000 -27.409900
-10.823489 16.745691 -0.286656 -22.861544 85.225051 3.466037 -11.744782 2.435171 -2.274974 -3.443423 6.422570 -8.174923 -1.147555 1.240523 25.152948 0.244635 -1.385286 6.983310 -0.320300 0.000000 -80.968000 7.809566 -0.072475 2.525022 8.994296 9.475930 -48.855638 2.561515 -1.048121 21.313388 -0.728270 -2.971412 0.602545 -1.196700 0.000001 -26.673400
-10.647513 16.747736 -0.260450 -27.898242 85.680632 -1.612770 -11.879997 2.322952 -2.251127 -2.848303 6.373074 -8.983610 -0.902039 1.350566 27.349055 0.316083 -1.374762 8.547821 -0.401499 0.000000 -80.992500 7.707925 -0.241728 2.419768 9.491618 9.342593 -48.867812 2.558487 -1.244328 23.073446 -0.812771 -3.041557 -0.711467 -1.090200 -0.000000 -26.242700
-10.475786 16.754018 -0.231958 -32.652760 86.065015 -6.450721 -12.038582 2.193328 -2.253373 -2.330105 6.393044 -9.819293 -0.654966 1.452513 29.597729 0.411556 -1.241121 10.194666 -0.462500 -0.000001 -80.122500 7.586489 -0.410170 2.290943 9.991802 9.154256 -48.675787 2.579378 -1.402108 24.542715 -0.889451 -3.066791 -2.095304 -0.965800 -0.000000 -26.044900
-10.308072 16.763701 -0.200802 -36.980788 86.365107 -10.894666 -12.207685 2.052893 -2.280228 -1.881876 6.484339 -10.685448 -0.418123 1.549033 31.885360 0.530882 -0.954437 11.845350 -0.481100 0.000000 -78.273300 7.456086 -0.566492 2.147712 10.487500 8.947720 -48.278069 2.617208 -1.517126 25.695951 -0.962890 -3.082279 -3.475966 -0.837199 -0.000000 -26.006900
-10.144056 16.776003 -0.166087 -40.388915 86.573568 -14.443144 -12.356729 1.917526 -2.327814 -1.535284 6.618111 -11.571019 -0.205211 1.644570 34.182320 0.672505 -0.460290 13.411236 -0.422600 0.000000 -75.411200 7.345885 -0.687644 1.992116 10.946127 8.726246 -47.700382 2.661694 -1.591902 26.560105 -1.031274 -3.087266 -4.800797 -0.708700 0.000000 -26.035800
-9.983256 16.790247 -0.127831 -42.880422 86.710480 -17.091581 -12.471799 1.788771 -2.393690 -1.282693 6.783469 -12.479770 -0.021021 1.740353 36.476200 0.830993 0.260847 14.804350 -0.260600 -0.000000 -71.625600 7.266448 -0.773247 1.834037 11.357369 8.506545 -46.968166 2.706433 -1.630252 27.151450 -1.096618 -3.101568 -6.017466 -0.588000 0.000000 -26.051900
-9.825141 16.805992 -0.086150 -44.426607 86.796652 -18.803153 -12.543356 1.669723 -2.473636 -1.128245 6.960580 -13.414106 0.132568 1.837885 38.746997 1.000722 1.222582 15.948080 0.024100 0.000000 -67.118899 7.226176 -0.823059 1.679797 11.705010 8.292690 -46.118448 2.745424 -1.638392 27.507016 -1.158327 -3.131298 -7.091134 -0.478800 0.000000 -25.990300
-9.669175 16.823004 -0.041355 -45.050517 86.851126 -19.591234 -12.568954 1.562928 -2.562124 -1.074939 7.128876 -14.378777 0.256997 1.938414 40.973044 1.176765 2.420091 16.787866 0.435900 0.000000 -62.198200 7.227926 -0.839399 1.534070 11.976952 8.085997 -45.191688 2.774067 -1.623027 27.671435 -1.215365 -3.178725 -8.002221 -0.383700 -0.000000 -25.817700
-9.514780 16.841325 0.005811 -44.851208 86.888258 -19.544706 -12.553157 1.469192 -2.652200 -1.119030 7.269243 -15.380696 0.356254 2.042274 43.132170 1.355371 3.825528 17.295819 0.959600 0.000000 -57.217000 7.267978 -0.827762 1.401170 12.169678 7.889502 -44.225639 2.789869 -1.589837 27.684843 -1.267239 -3.246356 -8.742503 -0.304100 0.000000 -25.548200
